{
  "asset": {
    "version": "2.0",
    "generator": "THREE.GLTFExporter"
  },
  "scenes": [
    {
      "nodes": [
        0
      ]
    }
  ],
  "scene": 0,
  "nodes": [
    {
      "children": [
        14
      ],
      "matrix": [
        0.01,
        0,
        0,
        0,
        0,
        0.01,
        0,
        0,
        0,
        0,
        0.01,
        0,
        0,
        0,
        0,
        1
      ]
    },
    {
      "matrix": [
        3.579399896552299e-16,
        -1.6653345369377348e-16,
        1,
        0,
        0.9999999999999999,
        2.1871208377741527e-17,
        -1.3589538473019852e-16,
        0,
        3.36399428535163e-17,
        1,
        2.220446049250313e-16,
        0,
        -18.45786496096724,
        5.910163068023096e-16,
        0.4191404881497932,
        1
      ],
      "name": "Rectangle",
      "mesh": 0
    },
    {
      "matrix": [
        3.579399896552299e-16,
        -1.6653345369377348e-16,
        1,
        0,
        0.9999999999999999,
        2.1871208377741527e-17,
        -1.3589538473019852e-16,
        0,
        3.36399428535163e-17,
        1,
        2.220446049250313e-16,
        0,
        25.256127023258276,
        7.406817685527868e-16,
        -5.809793980393051e-16,
        1
      ],
      "name": "Triangle",
      "mesh": 1
    },
    {
      "matrix": [
        7.473753028404316e-17,
        5.163454421805414e-17,
        0.3100550854664988,
        0,
        -1,
        1.0778455485121154e-16,
        1.5113304960646214e-16,
        0,
        3.957315116004855e-18,
        -0.2248524266449285,
        2.4963634120403856e-17,
        0,
        -23.497667680922202,
        -63.8018437049692,
        -164.17807340155886,
        1.0000000000000002
      ],
      "name": "Group 5",
      "children": [
        1,
        2
      ]
    },
    {
      "matrix": [
        3.579399896552299e-16,
        -1.6653345369377348e-16,
        1,
        0,
        0.9999999999999999,
        2.1871208377741527e-17,
        -1.3589538473019852e-16,
        0,
        3.36399428535163e-17,
        1,
        2.220446049250313e-16,
        0,
        -18.45786496096724,
        5.910163068023096e-16,
        0.4191404881497932,
        1
      ],
      "name": "Rectangle",
      "mesh": 2
    },
    {
      "matrix": [
        3.579399896552299e-16,
        -1.6653345369377348e-16,
        1,
        0,
        0.9999999999999999,
        2.1871208377741527e-17,
        -1.3589538473019852e-16,
        0,
        3.36399428535163e-17,
        1,
        2.220446049250313e-16,
        0,
        25.256127023258276,
        7.406817685527868e-16,
        -5.809793980393051e-16,
        1
      ],
      "name": "Triangle",
      "mesh": 3
    },
    {
      "matrix": [
        9.493767614754842e-17,
        6.884605895740553e-17,
        -0.3100550854664988,
        0,
        -0.9999999999999999,
        1.0778455485121154e-16,
        -2.0664420083771994e-16,
        0,
        -5.873906270045933e-18,
        0.22485242664492844,
        6.240908530100965e-17,
        0,
        -23.4976676809222,
        -0.3614794647684266,
        -164.17807340155883,
        1
      ],
      "name": "Group 4",
      "children": [
        4,
        5
      ]
    },
    {
      "matrix": [
        3.579399896552299e-16,
        -1.6653345369377348e-16,
        1,
        0,
        0.9999999999999999,
        2.1871208377741527e-17,
        -1.3589538473019852e-16,
        0,
        3.36399428535163e-17,
        1,
        2.220446049250313e-16,
        0,
        -18.45786496096724,
        5.910163068023096e-16,
        0.4191404881497932,
        1
      ],
      "name": "Rectangle",
      "mesh": 4
    },
    {
      "matrix": [
        3.579399896552299e-16,
        -1.6653345369377348e-16,
        1,
        0,
        0.9999999999999999,
        2.1871208377741527e-17,
        -1.3589538473019852e-16,
        0,
        3.36399428535163e-17,
        1,
        2.220446049250313e-16,
        0,
        25.256127023258276,
        7.406817685527868e-16,
        -5.809793980393051e-16,
        1
      ],
      "name": "Triangle",
      "mesh": 5
    },
    {
      "matrix": [
        7.655808460572723e-17,
        8.605757369675692e-17,
        0.3100550854664988,
        0,
        -1,
        5.2273403619953766e-17,
        1.511330496064622e-16,
        0,
        -4.9177942773920804e-18,
        -0.22485242664492844,
        4.992726824080772e-17,
        0,
        -23.497667680922238,
        63.82641178254308,
        -164.17807340155883,
        1
      ],
      "name": "Group 3",
      "children": [
        7,
        8
      ]
    },
    {
      "matrix": [
        1,
        0,
        0,
        0,
        0,
        1,
        0,
        0,
        0,
        0,
        1,
        0,
        -2.5,
        2.234117006409207,
        3.3167876062412347,
        1
      ],
      "name": "Boolean",
      "mesh": 6
    },
    {
      "matrix": [
        1,
        0,
        0,
        0,
        0,
        1,
        0,
        0,
        0,
        0,
        1,
        0,
        -43,
        -28,
        66,
        1
      ],
      "name": "servo",
      "children": [
        3,
        6,
        9,
        10
      ]
    },
    {
      "matrix": [
        0.1543899086579903,
        -2.4455286046221048e-8,
        -0.9880099979780451,
        0,
        -0.3158401926069805,
        0.9475279013442037,
        -0.04935432005644863,
        0,
        0.936167041098202,
        0.31967307702440045,
        0.14628873841546652,
        0,
        338.01404505566046,
        69.81400259889134,
        163.13073926382174,
        1
      ],
      "camera": 0
    },
    {
      "matrix": [
        1,
        0,
        0,
        0,
        0,
        1,
        0,
        0,
        0,
        0,
        1,
        0,
        0,
        1,
        0,
        1
      ],
      "name": "Default Ambient Light"
    },
    {
      "name": "Scene 1",
      "children": [
        11,
        12,
        13
      ]
    }
  ],
  "bufferViews": [
    {
      "buffer": 0,
      "byteOffset": 0,
      "byteLength": 48,
      "target": 34962,
      "byteStride": 12
    },
    {
      "buffer": 0,
      "byteOffset": 48,
      "byteLength": 48,
      "target": 34962,
      "byteStride": 12
    },
    {
      "buffer": 0,
      "byteOffset": 96,
      "byteLength": 32,
      "target": 34962,
      "byteStride": 8
    },
    {
      "buffer": 0,
      "byteOffset": 128,
      "byteLength": 24,
      "target": 34963
    },
    {
      "buffer": 0,
      "byteOffset": 152,
      "byteLength": 36,
      "target": 34962,
      "byteStride": 12
    },
    {
      "buffer": 0,
      "byteOffset": 188,
      "byteLength": 36,
      "target": 34962,
      "byteStride": 12
    },
    {
      "buffer": 0,
      "byteOffset": 224,
      "byteLength": 24,
      "target": 34962,
      "byteStride": 8
    },
    {
      "buffer": 0,
      "byteOffset": 248,
      "byteLength": 12,
      "target": 34963
    },
    {
      "buffer": 0,
      "byteOffset": 260,
      "byteLength": 456840,
      "target": 34962,
      "byteStride": 12
    },
    {
      "buffer": 0,
      "byteOffset": 457100,
      "byteLength": 456840,
      "target": 34962,
      "byteStride": 12
    }
  ],
  "buffers": [
    {
      "byteLength": 913940,
      "uri": "data:application/octet-stream;base64,"
    }
  ],
  "accessors": [
    {
      "bufferView": 0,
      "componentType": 5126,
      "count": 4,
      "max": [
        9.21993350982666,
        25.7825984954834,
        0
      ],
      "min": [
        -9.21993350982666,
        -25.7825984954834,
        0
      ],
      "type": "VEC3"
    },
    {
      "bufferView": 1,
      "componentType": 5126,
      "count": 4,
      "max": [
        0,
        0,
        1
      ],
      "min": [
        0,
        0,
        1
      ],
      "type": "VEC3"
    },
    {
      "bufferView": 2,
      "componentType": 5126,
      "count": 4,
      "max": [
        1,
        1
      ],
      "min": [
        0,
        0
      ],
      "type": "VEC2"
    },
    {
      "bufferView": 3,
      "componentType": 5125,
      "count": 6,
      "max": [
        3
      ],
      "min": [
        0
      ],
      "type": "SCALAR"
    },
    {
      "bufferView": 4,
      "componentType": 5126,
      "count": 3,
      "max": [
        30.264545440673828,
        18.98433494567871,
        0
      ],
      "min": [
        -30.264545440673828,
        -18.98433494567871,
        0
      ],
      "type": "VEC3"
    },
    {
      "bufferView": 5,
      "componentType": 5126,
      "count": 3,
      "max": [
        0,
        0,
        1
      ],
      "min": [
        0,
        0,
        1
      ],
      "type": "VEC3"
    },
    {
      "bufferView": 6,
      "componentType": 5126,
      "count": 3,
      "max": [
        1,
        1
      ],
      "min": [
        0,
        0
      ],
      "type": "VEC2"
    },
    {
      "bufferView": 7,
      "componentType": 5125,
      "count": 3,
      "max": [
        2
      ],
      "min": [
        0
      ],
      "type": "SCALAR"
    },
    {
      "bufferView": 8,
      "componentType": 5126,
      "count": 38070,
      "max": [
        27.5,
        97.76588439941406,
        154.21331787109375
      ],
      "min": [
        -22.5,
        -102.23411560058594,
        -149.19993591308594
      ],
      "type": "VEC3"
    },
    {
      "bufferView": 9,
      "componentType": 5126,
      "count": 38070,
      "max": [
        1,
        1,
        1
      ],
      "min": [
        -1,
        -1,
        -1
      ],
      "type": "VEC3"
    }
  ],
  "meshes": [
    {
      "primitives": [
        {
          "mode": 4,
          "attributes": {
            "POSITION": 0,
            "NORMAL": 1,
            "TEXCOORD_0": 2
          },
          "extras": {
            "shape": {
              "points": [
                -9.219933721457808,
                25.782597868521577,
                -9.219933721457808,
                25.782597868521577,
                -9.219933721457808,
                25.782597868521577,
                0,
                9.219933721457808,
                25.782597868521577,
                9.219933721457808,
                25.782597868521577,
                9.219933721457808,
                25.782597868521577,
                0,
                9.219933721457808,
                -25.782597868521577,
                9.219933721457808,
                -25.782597868521577,
                9.219933721457808,
                -25.782597868521577,
                0,
                -9.219933721457808,
                -25.782597868521577,
                -9.219933721457808,
                -25.782597868521577,
                -9.219933721457808,
                -25.782597868521577,
                0
              ],
              "shapeHoles": [],
              "isClosed": true,
              "roundness": 0
            },
            "parameters": {
              "width": 18.439867442915617,
              "depth": 0,
              "cornerRadius": [
                0,
                0,
                0,
                0
              ],
              "cornerType": 1,
              "extrudeBevelSize": 0,
              "extrudeBevelSegments": 1,
              "height": 51.565195737043155,
              "type": "RectangleGeometry"
            },
            "ui": {
              "enabledIndieCorners": false
            },
            "type": "RectangleGeometry",
            "booleanOperationDidFail": "openEdges"
          },
          "indices": 3
        }
      ]
    },
    {
      "primitives": [
        {
          "mode": 4,
          "attributes": {
            "POSITION": 4,
            "NORMAL": 5,
            "TEXCOORD_0": 6
          },
          "extras": {
            "shape": {
              "points": [
                0,
                18.984335806230575,
                0,
                18.984335806230575,
                0,
                18.984335806230575,
                0,
                30.264544645763056,
                -18.984335806230575,
                30.264544645763056,
                -18.984335806230575,
                30.264544645763056,
                -18.984335806230575,
                0,
                -30.264544645763056,
                -18.984335806230575,
                -30.264544645763056,
                -18.984335806230575,
                -30.264544645763056,
                -18.984335806230575,
                0
              ],
              "shapeHoles": [],
              "isClosed": true,
              "roundness": 0
            },
            "parameters": {
              "width": 60.52908929152611,
              "depth": 0,
              "spikes": 5,
              "cornerRadius": 0,
              "extrudeBevelSize": 0,
              "extrudeBevelSegments": 1,
              "isRect": false,
              "height": 37.96867161246115,
              "type": "TriangleGeometry"
            },
            "type": "TriangleGeometry",
            "booleanOperationDidFail": "openEdges"
          },
          "indices": 7
        }
      ]
    },
    {
      "primitives": [
        {
          "mode": 4,
          "attributes": {
            "POSITION": 0,
            "NORMAL": 1,
            "TEXCOORD_0": 2
          },
          "extras": {
            "shape": {
              "points": [
                -9.219933721457808,
                25.782597868521577,
                -9.219933721457808,
                25.782597868521577,
                -9.219933721457808,
                25.782597868521577,
                0,
                9.219933721457808,
                25.782597868521577,
                9.219933721457808,
                25.782597868521577,
                9.219933721457808,
                25.782597868521577,
                0,
                9.219933721457808,
                -25.782597868521577,
                9.219933721457808,
                -25.782597868521577,
                9.219933721457808,
                -25.782597868521577,
                0,
                -9.219933721457808,
                -25.782597868521577,
                -9.219933721457808,
                -25.782597868521577,
                -9.219933721457808,
                -25.782597868521577,
                0
              ],
              "shapeHoles": [],
              "isClosed": true,
              "roundness": 0
            },
            "parameters": {
              "width": 18.439867442915617,
              "depth": 0,
              "cornerRadius": [
                0,
                0,
                0,
                0
              ],
              "cornerType": 1,
              "extrudeBevelSize": 0,
              "extrudeBevelSegments": 1,
              "height": 51.565195737043155,
              "type": "RectangleGeometry"
            },
            "ui": {
              "enabledIndieCorners": false
            },
            "type": "RectangleGeometry",
            "booleanOperationDidFail": "openEdges"
          },
          "indices": 3
        }
      ]
    },
    {
      "primitives": [
        {
          "mode": 4,
          "attributes": {
            "POSITION": 4,
            "NORMAL": 5,
            "TEXCOORD_0": 6
          },
          "extras": {
            "shape": {
              "points": [
                0,
                18.984335806230575,
                0,
                18.984335806230575,
                0,
                18.984335806230575,
                0,
                30.264544645763056,
                -18.984335806230575,
                30.264544645763056,
                -18.984335806230575,
                30.264544645763056,
                -18.984335806230575,
                0,
                -30.264544645763056,
                -18.984335806230575,
                -30.264544645763056,
                -18.984335806230575,
                -30.264544645763056,
                -18.984335806230575,
                0
              ],
              "shapeHoles": [],
              "isClosed": true,
              "roundness": 0
            },
            "parameters": {
              "width": 60.52908929152611,
              "depth": 0,
              "spikes": 5,
              "cornerRadius": 0,
              "extrudeBevelSize": 0,
              "extrudeBevelSegments": 1,
              "isRect": false,
              "height": 37.96867161246115,
              "type": "TriangleGeometry"
            },
            "type": "TriangleGeometry",
            "booleanOperationDidFail": "openEdges"
          },
          "indices": 7
        }
      ]
    },
    {
      "primitives": [
        {
          "mode": 4,
          "attributes": {
            "POSITION": 0,
            "NORMAL": 1,
            "TEXCOORD_0": 2
          },
          "extras": {
            "shape": {
              "points": [
                -9.219933721457808,
                25.782597868521577,
                -9.219933721457808,
                25.782597868521577,
                -9.219933721457808,
                25.782597868521577,
                0,
                9.219933721457808,
                25.782597868521577,
                9.219933721457808,
                25.782597868521577,
                9.219933721457808,
                25.782597868521577,
                0,
                9.219933721457808,
                -25.782597868521577,
                9.219933721457808,
                -25.782597868521577,
                9.219933721457808,
                -25.782597868521577,
                0,
                -9.219933721457808,
                -25.782597868521577,
                -9.219933721457808,
                -25.782597868521577,
                -9.219933721457808,
                -25.782597868521577,
                0
              ],
              "shapeHoles": [],
              "isClosed": true,
              "roundness": 0
            },
            "parameters": {
              "width": 18.439867442915617,
              "depth": 0,
              "cornerRadius": [
                0,
                0,
                0,
                0
              ],
              "cornerType": 1,
              "extrudeBevelSize": 0,
              "extrudeBevelSegments": 1,
              "height": 51.565195737043155,
              "type": "RectangleGeometry"
            },
            "ui": {
              "enabledIndieCorners": false
            },
            "type": "RectangleGeometry",
            "booleanOperationDidFail": "openEdges"
          },
          "indices": 3
        }
      ]
    },
    {
      "primitives": [
        {
          "mode": 4,
          "attributes": {
            "POSITION": 4,
            "NORMAL": 5,
            "TEXCOORD_0": 6
          },
          "extras": {
            "shape": {
              "points": [
                0,
                18.984335806230575,
                0,
                18.984335806230575,
                0,
                18.984335806230575,
                0,
                30.264544645763056,
                -18.984335806230575,
                30.264544645763056,
                -18.984335806230575,
                30.264544645763056,
                -18.984335806230575,
                0,
                -30.264544645763056,
                -18.984335806230575,
                -30.264544645763056,
                -18.984335806230575,
                -30.264544645763056,
                -18.984335806230575,
                0
              ],
              "shapeHoles": [],
              "isClosed": true,
              "roundness": 0
            },
            "parameters": {
              "width": 60.52908929152611,
              "depth": 0,
              "spikes": 5,
              "cornerRadius": 0,
              "extrudeBevelSize": 0,
              "extrudeBevelSegments": 1,
              "isRect": false,
              "height": 37.96867161246115,
              "type": "TriangleGeometry"
            },
            "type": "TriangleGeometry",
            "booleanOperationDidFail": "openEdges"
          },
          "indices": 7
        }
      ]
    },
    {
      "primitives": [
        {
          "mode": 4,
          "attributes": {
            "POSITION": 8,
            "NORMAL": 9
          },
          "extras": {
            "parameters": {
              "width": 50,
              "height": 200,
              "depth": 303.41326904296875
            }
          }
        }
      ]
    }
  ],
  "cameras": [
    {
      "type": "perspective",
      "perspective": {
        "aspectRatio": 1.9616858237547892,
        "yfov": 0.7853981633974483,
        "zfar": 100000,
        "znear": 70
      }
    }
  ]
}