{
  "asset": {
    "version": "2.0",
    "generator": "THREE.GLTFExporter"
  },
  "scenes": [
    {
      "nodes": [
        0
      ]
    }
  ],
  "scene": 0,
  "nodes": [
    {
      "children": [
        7
      ],
      "matrix": [
        0.01,
        0,
        0,
        0,
        0,
        0.01,
        0,
        0,
        0,
        0,
        0.01,
        0,
        0,
        0,
        0,
        1
      ]
    },
    {
      "matrix": [
        1,
        0,
        0,
        0,
        0,
        1,
        0,
        0,
        0,
        0,
        1,
        0,
        0.518702453878749,
        -68.0856604647862,
        -0.863178719205898,
        1
      ],
      "name": "Cylinder 3",
      "mesh": 0
    },
    {
      "matrix": [
        1,
        0,
        0,
        0,
        0,
        1,
        0,
        0,
        0,
        0,
        1,
        0,
        0.518702453878749,
        70.17485305810702,
        -0.8260889169471852,
        1
      ],
      "name": "Cylinder 2",
      "mesh": 1
    },
    {
      "matrix": [
        1,
        0,
        0,
        0,
        0,
        1,
        0,
        0,
        0,
        0,
        1,
        0,
        3.552713678800501e-15,
        0.11817015075734716,
        0,
        1
      ],
      "name": "Cylinder",
      "mesh": 2
    },
    {
      "name": "Group",
      "children": [
        1,
        2,
        3
      ]
    },
    {
      "matrix": [
        0.28404106985492605,
        2.1067930008195068e-8,
        0.9588121143559194,
        0,
        -0.021893183953601247,
        0.999739278279846,
        0.006485673509091773,
        0,
        -0.9585621310755204,
        -0.022833647638787678,
        0.2839670146398432,
        0,
        -841.902074093389,
        22.32783407653218,
        195.61842698216077,
        1
      ],
      "camera": 0
    },
    {
      "matrix": [
        1,
        0,
        0,
        0,
        0,
        1,
        0,
        0,
        0,
        0,
        1,
        0,
        0,
        1,
        0,
        1
      ],
      "name": "Default Ambient Light"
    },
    {
      "name": "Scene 1",
      "children": [
        4,
        5,
        6
      ]
    }
  ],
  "bufferViews": [
    {
      "buffer": 0,
      "byteOffset": 0,
      "byteLength": 4656,
      "target": 34962,
      "byteStride": 12
    },
    {
      "buffer": 0,
      "byteOffset": 4656,
      "byteLength": 4656,
      "target": 34962,
      "byteStride": 12
    },
    {
      "buffer": 0,
      "byteOffset": 9312,
      "byteLength": 3104,
      "target": 34962,
      "byteStride": 8
    },
    {
      "buffer": 0,
      "byteOffset": 12416,
      "byteLength": 1536,
      "target": 34963
    },
    {
      "buffer": 0,
      "byteOffset": 13952,
      "byteLength": 4656,
      "target": 34962,
      "byteStride": 12
    },
    {
      "buffer": 0,
      "byteOffset": 18608,
      "byteLength": 4656,
      "target": 34962,
      "byteStride": 12
    },
    {
      "buffer": 0,
      "byteOffset": 23264,
      "byteLength": 3104,
      "target": 34962,
      "byteStride": 8
    },
    {
      "buffer": 0,
      "byteOffset": 26368,
      "byteLength": 1536,
      "target": 34963
    },
    {
      "buffer": 0,
      "byteOffset": 27904,
      "byteLength": 18720,
      "target": 34962,
      "byteStride": 12
    },
    {
      "buffer": 0,
      "byteOffset": 46624,
      "byteLength": 18720,
      "target": 34962,
      "byteStride": 12
    },
    {
      "buffer": 0,
      "byteOffset": 65344,
      "byteLength": 12480,
      "target": 34962,
      "byteStride": 8
    },
    {
      "buffer": 0,
      "byteOffset": 77824,
      "byteLength": 17280,
      "target": 34963
    }
  ],
  "buffers": [
    {
      "byteLength": 95104,
      "uri": "data:application/octet-stream;base64,"
    }
  ],
  "accessors": [
    {
      "bufferView": 0,
      "componentType": 5126,
      "count": 388,
      "max": [
        3,
        54.89982223510742,
        2.9629101753234863
      ],
      "min": [
        -3,
        -54.89982223510742,
        -2.9629101753234863
      ],
      "type": "VEC3"
    },
    {
      "bufferView": 1,
      "componentType": 5126,
      "count": 388,
      "max": [
        1,
        1,
        1
      ],
      "min": [
        -1,
        -1,
        -1
      ],
      "type": "VEC3"
    },
    {
      "bufferView": 2,
      "componentType": 5126,
      "count": 388,
      "max": [
        1,
        1
      ],
      "min": [
        0,
        0
      ],
      "type": "VEC2"
    },
    {
      "bufferView": 3,
      "componentType": 5123,
      "count": 768,
      "max": [
        387
      ],
      "min": [
        0
      ],
      "type": "SCALAR"
    },
    {
      "bufferView": 4,
      "componentType": 5126,
      "count": 388,
      "max": [
        3,
        60.6292724609375,
        3
      ],
      "min": [
        -3,
        -60.6292724609375,
        -3
      ],
      "type": "VEC3"
    },
    {
      "bufferView": 5,
      "componentType": 5126,
      "count": 388,
      "max": [
        1,
        1,
        1
      ],
      "min": [
        -1,
        -1,
        -1
      ],
      "type": "VEC3"
    },
    {
      "bufferView": 6,
      "componentType": 5126,
      "count": 388,
      "max": [
        1,
        1
      ],
      "min": [
        0,
        0
      ],
      "type": "VEC2"
    },
    {
      "bufferView": 7,
      "componentType": 5123,
      "count": 768,
      "max": [
        387
      ],
      "min": [
        0
      ],
      "type": "SCALAR"
    },
    {
      "bufferView": 8,
      "componentType": 5126,
      "count": 1560,
      "max": [
        45.48129653930664,
        15.301177978515625,
        46.73722457885742
      ],
      "min": [
        -45.48129653930664,
        -15.301177978515625,
        -46.73722457885742
      ],
      "type": "VEC3"
    },
    {
      "bufferView": 9,
      "componentType": 5126,
      "count": 1560,
      "max": [
        1,
        1,
        1
      ],
      "min": [
        -1,
        -1,
        -1
      ],
      "type": "VEC3"
    },
    {
      "bufferView": 10,
      "componentType": 5126,
      "count": 1560,
      "max": [
        1,
        1
      ],
      "min": [
        0,
        0
      ],
      "type": "VEC2"
    },
    {
      "bufferView": 11,
      "componentType": 5123,
      "count": 8640,
      "max": [
        1558
      ],
      "min": [
        0
      ],
      "type": "SCALAR"
    }
  ],
  "meshes": [
    {
      "primitives": [
        {
          "mode": 4,
          "attributes": {
            "POSITION": 0,
            "NORMAL": 1,
            "TEXCOORD_0": 2
          },
          "extras": {
            "parameters": {
              "width": 6,
              "radialSegments": 64,
              "heightSegments": 1,
              "openEnded": false,
              "thetaStart": 0,
              "thetaLength": 360,
              "cornerRadius": 0,
              "cornerSegments": 1,
              "hollow": 0,
              "height": 109.79964785138026,
              "depth": 5.9258203954825746,
              "radiusTop": 3,
              "radiusBottom": 3,
              "type": "CylinderGeometry"
            },
            "type": "CylinderGeometry"
          },
          "indices": 3
        }
      ]
    },
    {
      "primitives": [
        {
          "mode": 4,
          "attributes": {
            "POSITION": 4,
            "NORMAL": 5,
            "TEXCOORD_0": 6
          },
          "extras": {
            "parameters": {
              "width": 6,
              "radialSegments": 64,
              "heightSegments": 1,
              "openEnded": false,
              "thetaStart": 0,
              "thetaLength": 360,
              "cornerRadius": 0,
              "cornerSegments": 1,
              "hollow": 0,
              "height": 121.25854637915162,
              "depth": 6,
              "radiusTop": 3,
              "radiusBottom": 3,
              "type": "CylinderGeometry"
            },
            "type": "CylinderGeometry"
          },
          "indices": 7
        }
      ]
    },
    {
      "primitives": [
        {
          "mode": 4,
          "attributes": {
            "POSITION": 8,
            "NORMAL": 9,
            "TEXCOORD_0": 10
          },
          "extras": {
            "parameters": {
              "width": 90.9625950922425,
              "radialSegments": 64,
              "heightSegments": 1,
              "openEnded": false,
              "thetaStart": 0,
              "thetaLength": 360,
              "cornerRadius": 8,
              "cornerSegments": 8,
              "hollow": 0,
              "depth": 93.47445376906529,
              "height": 30.602355289727747,
              "radiusTop": 45.48129754612125,
              "radiusBottom": 45.48129754612125,
              "type": "CylinderGeometry"
            },
            "type": "CylinderGeometry"
          },
          "indices": 11
        }
      ]
    }
  ],
  "cameras": [
    {
      "type": "perspective",
      "perspective": {
        "aspectRatio": 1.9616858237547892,
        "yfov": 0.7853981633974483,
        "zfar": 100000,
        "znear": 70
      }
    }
  ]
}