<svg width="101" height="111" viewBox="0 0 101 111" fill="none" xmlns="http://www.w3.org/2000/svg">
<path fill-rule="evenodd" clip-rule="evenodd" d="M101 0H0V111H101V0ZM44 15C41.7909 15 40 16.7909 40 19V21C40 22.8409 41.2436 24.3913 42.9365 24.8571L24.8335 46.4314C24.1092 46.1527 23.3224 46 22.5 46C18.9101 46 16 48.9101 16 52.5C16 56.0899 18.9101 59 22.5 59C26.0899 59 29 56.0899 29 52.5C29 50.821 28.3634 49.2907 27.3184 48.1372L31.1431 43.5791L43.0049 57.5323C41.8066 58.2232 41 59.5174 41 61V63C41 65.2091 42.7909 67 45 67V86H42C41.4477 86 41 86.4477 41 87V89H39C36.7909 89 35 90.7909 35 93V96H66V93C66 90.7909 64.2091 89 62 89H60V87C60 86.4477 59.5523 86 59 86H56V67C58.2091 67 60 65.2091 60 63V61C60 59.5898 59.2702 58.35 58.1677 57.6377L69.8653 43.2194L73.8455 47.9628C72.7036 49.1341 72 50.7349 72 52.5C72 56.0899 74.9101 59 78.5 59C82.0899 59 85 56.0899 85 52.5C85 48.9101 82.0899 46 78.5 46C77.7668 46 77.0619 46.1214 76.4044 46.3452L58.3096 24.7807C59.8756 24.2383 61 22.7505 61 21V19C61 16.7909 59.2091 15 57 15H44ZM56 57C56.0363 57 56.0725 57.0005 56.1085 57.0014L68.5559 41.659L56 26.6954V57ZM45 56.7912V27.0651L32.4471 42.0251L45 56.7912Z" fill="#838E9E"/>
</svg>
