<svg width="69" height="81" viewBox="0 0 69 81" fill="none" xmlns="http://www.w3.org/2000/svg">
<path fill-rule="evenodd" clip-rule="evenodd" d="M28 0H0V37.5V81H19V78C19 75.7909 20.7909 74 23 74H25V72C25 71.4477 25.4477 71 26 71H29V52C26.7909 52 25 50.2091 25 48V46C25 44.5174 25.8066 43.2232 27.0049 42.5323L15.1431 28.5791L11.3184 33.1372C12.3634 34.2906 13 35.821 13 37.5C13 41.0898 10.0898 44 6.5 44C2.91016 44 0 41.0898 0 37.5C0 33.9102 2.91016 31 6.5 31C7.32245 31 8.10922 31.1527 8.8335 31.4314L26.9365 9.85709C25.2436 9.39136 24 7.8409 24 6V4C24 1.79086 25.7909 0 28 0ZM41 0C43.2091 0 45 1.79086 45 4V6C45 7.75047 43.8756 9.23833 42.3096 9.7807L60.4044 31.3452C61.0619 31.1214 61.7668 31 62.5 31C66.0898 31 69 33.9102 69 37.5C69 41.0898 66.0898 44 62.5 44C58.9102 44 56 41.0898 56 37.5C56 35.7349 56.7036 34.1342 57.8455 32.9628L53.8654 28.2195L42.1678 42.6378C43.2702 43.35 44 44.5898 44 46V48C44 50.2091 42.2091 52 40 52V71H43C43.5523 71 44 71.4477 44 72V74H46C48.2091 74 50 75.7909 50 78V81H69V37.5V0H41ZM40 42C40.0363 42 40.0725 42.0005 40.1086 42.0014L52.5559 26.659L40 11.6954V42ZM29 41.7912V12.0651L16.4471 27.0251L29 41.7912Z" fill="#838E9E"/>
</svg>
